<svg xmlns="http://www.w3.org/2000/svg" version="1.1" xmlns:xlink="http://www.w3.org/1999/xlink" xmlns:svgjs="http://svgjs.dev/svgjs" viewBox="0 0 800 800" width="800" height="800"><g stroke-width="0.75" stroke="hsla(0, 0%, 84%, 1.00)" fill="none"><circle r="0.8157894736842105" cx="0" cy="0" fill="hsla(0, 0%, 84%, 1.00)" stroke="none"></circle><circle r="0.8157894736842105" cx="50" cy="0" fill="hsla(0, 0%, 84%, 1.00)" stroke="none"></circle><circle r="0.8157894736842105" cx="100" cy="0" fill="hsla(0, 0%, 84%, 1.00)" stroke="none"></circle><circle r="0.8157894736842105" cx="150" cy="0" fill="hsla(0, 0%, 84%, 1.00)" stroke="none"></circle><circle r="0.8157894736842105" cx="200" cy="0" fill="hsla(0, 0%, 84%, 1.00)" stroke="none"></circle><circle r="0.8157894736842105" cx="250" cy="0" fill="hsla(0, 0%, 84%, 1.00)" stroke="none"></circle><circle r="0.8157894736842105" cx="300" cy="0" fill="hsla(0, 0%, 84%, 1.00)" stroke="none"></circle><circle r="0.8157894736842105" cx="350" cy="0" fill="hsla(0, 0%, 84%, 1.00)" stroke="none"></circle><circle r="0.8157894736842105" cx="400" cy="0" fill="hsla(0, 0%, 84%, 1.00)" stroke="none"></circle><circle r="0.8157894736842105" cx="450" cy="0" fill="hsla(0, 0%, 84%, 1.00)" stroke="none"></circle><circle r="0.8157894736842105" cx="500" cy="0" fill="hsla(0, 0%, 84%, 1.00)" stroke="none"></circle><circle r="0.8157894736842105" cx="550" cy="0" fill="hsla(0, 0%, 84%, 1.00)" stroke="none"></circle><circle r="0.8157894736842105" cx="600" cy="0" fill="hsla(0, 0%, 84%, 1.00)" stroke="none"></circle><circle r="0.8157894736842105" cx="650" cy="0" fill="hsla(0, 0%, 84%, 1.00)" stroke="none"></circle><circle r="0.8157894736842105" cx="700" cy="0" fill="hsla(0, 0%, 84%, 1.00)" stroke="none"></circle><circle r="0.8157894736842105" cx="750" cy="0" fill="hsla(0, 0%, 84%, 1.00)" stroke="none"></circle><circle r="0.8157894736842105" cx="800" cy="0" fill="hsla(0, 0%, 84%, 1.00)" stroke="none"></circle><circle r="0.8157894736842105" cx="0" cy="44.44444444444444" fill="hsla(0, 0%, 84%, 1.00)" stroke="none"></circle><circle r="0.8157894736842105" cx="50" cy="44.44444444444444" fill="hsla(0, 0%, 84%, 1.00)" stroke="none"></circle><circle r="0.8157894736842105" cx="100" cy="44.44444444444444" fill="hsla(0, 0%, 84%, 1.00)" stroke="none"></circle><circle r="0.8157894736842105" cx="150" cy="44.44444444444444" fill="hsla(0, 0%, 84%, 1.00)" stroke="none"></circle><circle r="0.8157894736842105" cx="200" cy="44.44444444444444" fill="hsla(0, 0%, 84%, 1.00)" stroke="none"></circle><circle r="0.8157894736842105" cx="250" cy="44.44444444444444" fill="hsla(0, 0%, 84%, 1.00)" stroke="none"></circle><circle r="0.8157894736842105" cx="300" cy="44.44444444444444" fill="hsla(0, 0%, 84%, 1.00)" stroke="none"></circle><circle r="0.8157894736842105" cx="350" cy="44.44444444444444" fill="hsla(0, 0%, 84%, 1.00)" stroke="none"></circle><circle r="0.8157894736842105" cx="400" cy="44.44444444444444" fill="hsla(0, 0%, 84%, 1.00)" stroke="none"></circle><circle r="0.8157894736842105" cx="450" cy="44.44444444444444" fill="hsla(0, 0%, 84%, 1.00)" stroke="none"></circle><circle r="0.8157894736842105" cx="500" cy="44.44444444444444" fill="hsla(0, 0%, 84%, 1.00)" stroke="none"></circle><circle r="0.8157894736842105" cx="550" cy="44.44444444444444" fill="hsla(0, 0%, 84%, 1.00)" stroke="none"></circle><circle r="0.8157894736842105" cx="600" cy="44.44444444444444" fill="hsla(0, 0%, 84%, 1.00)" stroke="none"></circle><circle r="0.8157894736842105" cx="650" cy="44.44444444444444" fill="hsla(0, 0%, 84%, 1.00)" stroke="none"></circle><circle r="0.8157894736842105" cx="700" cy="44.44444444444444" fill="hsla(0, 0%, 84%, 1.00)" stroke="none"></circle><circle r="0.8157894736842105" cx="750" cy="44.44444444444444" fill="hsla(0, 0%, 84%, 1.00)" stroke="none"></circle><circle r="0.8157894736842105" cx="800" cy="44.44444444444444" fill="hsla(0, 0%, 84%, 1.00)" stroke="none"></circle><circle r="0.8157894736842105" cx="0" cy="88.88888888888889" fill="hsla(0, 0%, 84%, 1.00)" stroke="none"></circle><circle r="0.8157894736842105" cx="50" cy="88.88888888888889" fill="hsla(0, 0%, 84%, 1.00)" stroke="none"></circle><circle r="0.8157894736842105" cx="100" cy="88.88888888888889" fill="hsla(0, 0%, 84%, 1.00)" stroke="none"></circle><circle r="0.8157894736842105" cx="150" cy="88.88888888888889" fill="hsla(0, 0%, 84%, 1.00)" stroke="none"></circle><circle r="0.8157894736842105" cx="200" cy="88.88888888888889" fill="hsla(0, 0%, 84%, 1.00)" stroke="none"></circle><circle r="0.8157894736842105" cx="250" cy="88.88888888888889" fill="hsla(0, 0%, 84%, 1.00)" stroke="none"></circle><circle r="0.8157894736842105" cx="300" cy="88.88888888888889" fill="hsla(0, 0%, 84%, 1.00)" stroke="none"></circle><circle r="0.8157894736842105" cx="350" cy="88.88888888888889" fill="hsla(0, 0%, 84%, 1.00)" stroke="none"></circle><circle r="0.8157894736842105" cx="400" cy="88.88888888888889" fill="hsla(0, 0%, 84%, 1.00)" stroke="none"></circle><circle r="0.8157894736842105" cx="450" cy="88.88888888888889" fill="hsla(0, 0%, 84%, 1.00)" stroke="none"></circle><circle r="0.8157894736842105" cx="500" cy="88.88888888888889" fill="hsla(0, 0%, 84%, 1.00)" stroke="none"></circle><circle r="0.8157894736842105" cx="550" cy="88.88888888888889" fill="hsla(0, 0%, 84%, 1.00)" stroke="none"></circle><circle r="0.8157894736842105" cx="600" cy="88.88888888888889" fill="hsla(0, 0%, 84%, 1.00)" stroke="none"></circle><circle r="0.8157894736842105" cx="650" cy="88.88888888888889" fill="hsla(0, 0%, 84%, 1.00)" stroke="none"></circle><circle r="0.8157894736842105" cx="700" cy="88.88888888888889" fill="hsla(0, 0%, 84%, 1.00)" stroke="none"></circle><circle r="0.8157894736842105" cx="750" cy="88.88888888888889" fill="hsla(0, 0%, 84%, 1.00)" stroke="none"></circle><circle r="0.8157894736842105" cx="800" cy="88.88888888888889" fill="hsla(0, 0%, 84%, 1.00)" stroke="none"></circle><circle r="0.8157894736842105" cx="0" cy="133.33333333333331" fill="hsla(0, 0%, 84%, 1.00)" stroke="none"></circle><circle r="0.8157894736842105" cx="50" cy="133.33333333333331" fill="hsla(0, 0%, 84%, 1.00)" stroke="none"></circle><circle r="0.8157894736842105" cx="100" cy="133.33333333333331" fill="hsla(0, 0%, 84%, 1.00)" stroke="none"></circle><circle r="0.8157894736842105" cx="150" cy="133.33333333333331" fill="hsla(0, 0%, 84%, 1.00)" stroke="none"></circle><circle r="0.8157894736842105" cx="200" cy="133.33333333333331" fill="hsla(0, 0%, 84%, 1.00)" stroke="none"></circle><circle r="0.8157894736842105" cx="250" cy="133.33333333333331" fill="hsla(0, 0%, 84%, 1.00)" stroke="none"></circle><circle r="0.8157894736842105" cx="300" cy="133.33333333333331" fill="hsla(0, 0%, 84%, 1.00)" stroke="none"></circle><circle r="0.8157894736842105" cx="350" cy="133.33333333333331" fill="hsla(0, 0%, 84%, 1.00)" stroke="none"></circle><circle r="0.8157894736842105" cx="400" cy="133.33333333333331" fill="hsla(0, 0%, 84%, 1.00)" stroke="none"></circle><circle r="0.8157894736842105" cx="450" cy="133.33333333333331" fill="hsla(0, 0%, 84%, 1.00)" stroke="none"></circle><circle r="0.8157894736842105" cx="500" cy="133.33333333333331" fill="hsla(0, 0%, 84%, 1.00)" stroke="none"></circle><circle r="0.8157894736842105" cx="550" cy="133.33333333333331" fill="hsla(0, 0%, 84%, 1.00)" stroke="none"></circle><circle r="0.8157894736842105" cx="600" cy="133.33333333333331" fill="hsla(0, 0%, 84%, 1.00)" stroke="none"></circle><circle r="0.8157894736842105" cx="650" cy="133.33333333333331" fill="hsla(0, 0%, 84%, 1.00)" stroke="none"></circle><circle r="0.8157894736842105" cx="700" cy="133.33333333333331" fill="hsla(0, 0%, 84%, 1.00)" stroke="none"></circle><circle r="0.8157894736842105" cx="750" cy="133.33333333333331" fill="hsla(0, 0%, 84%, 1.00)" stroke="none"></circle><circle r="0.8157894736842105" cx="800" cy="133.33333333333331" fill="hsla(0, 0%, 84%, 1.00)" stroke="none"></circle><circle r="0.8157894736842105" cx="0" cy="177.77777777777777" fill="hsla(0, 0%, 84%, 1.00)" stroke="none"></circle><circle r="0.8157894736842105" cx="50" cy="177.77777777777777" fill="hsla(0, 0%, 84%, 1.00)" stroke="none"></circle><circle r="0.8157894736842105" cx="100" cy="177.77777777777777" fill="hsla(0, 0%, 84%, 1.00)" stroke="none"></circle><circle r="0.8157894736842105" cx="150" cy="177.77777777777777" fill="hsla(0, 0%, 84%, 1.00)" stroke="none"></circle><circle r="0.8157894736842105" cx="200" cy="177.77777777777777" fill="hsla(0, 0%, 84%, 1.00)" stroke="none"></circle><circle r="0.8157894736842105" cx="250" cy="177.77777777777777" fill="hsla(0, 0%, 84%, 1.00)" stroke="none"></circle><circle r="0.8157894736842105" cx="300" cy="177.77777777777777" fill="hsla(0, 0%, 84%, 1.00)" stroke="none"></circle><circle r="0.8157894736842105" cx="350" cy="177.77777777777777" fill="hsla(0, 0%, 84%, 1.00)" stroke="none"></circle><circle r="0.8157894736842105" cx="400" cy="177.77777777777777" fill="hsla(0, 0%, 84%, 1.00)" stroke="none"></circle><circle r="0.8157894736842105" cx="450" cy="177.77777777777777" fill="hsla(0, 0%, 84%, 1.00)" stroke="none"></circle><circle r="0.8157894736842105" cx="500" cy="177.77777777777777" fill="hsla(0, 0%, 84%, 1.00)" stroke="none"></circle><circle r="0.8157894736842105" cx="550" cy="177.77777777777777" fill="hsla(0, 0%, 84%, 1.00)" stroke="none"></circle><circle r="0.8157894736842105" cx="600" cy="177.77777777777777" fill="hsla(0, 0%, 84%, 1.00)" stroke="none"></circle><circle r="0.8157894736842105" cx="650" cy="177.77777777777777" fill="hsla(0, 0%, 84%, 1.00)" stroke="none"></circle><circle r="0.8157894736842105" cx="700" cy="177.77777777777777" fill="hsla(0, 0%, 84%, 1.00)" stroke="none"></circle><circle r="0.8157894736842105" cx="750" cy="177.77777777777777" fill="hsla(0, 0%, 84%, 1.00)" stroke="none"></circle><circle r="0.8157894736842105" cx="800" cy="177.77777777777777" fill="hsla(0, 0%, 84%, 1.00)" stroke="none"></circle><circle r="0.8157894736842105" cx="0" cy="222.22222222222223" fill="hsla(0, 0%, 84%, 1.00)" stroke="none"></circle><circle r="0.8157894736842105" cx="50" cy="222.22222222222223" fill="hsla(0, 0%, 84%, 1.00)" stroke="none"></circle><circle r="0.8157894736842105" cx="100" cy="222.22222222222223" fill="hsla(0, 0%, 84%, 1.00)" stroke="none"></circle><circle r="0.8157894736842105" cx="150" cy="222.22222222222223" fill="hsla(0, 0%, 84%, 1.00)" stroke="none"></circle><circle r="0.8157894736842105" cx="200" cy="222.22222222222223" fill="hsla(0, 0%, 84%, 1.00)" stroke="none"></circle><circle r="0.8157894736842105" cx="250" cy="222.22222222222223" fill="hsla(0, 0%, 84%, 1.00)" stroke="none"></circle><circle r="0.8157894736842105" cx="300" cy="222.22222222222223" fill="hsla(0, 0%, 84%, 1.00)" stroke="none"></circle><circle r="0.8157894736842105" cx="350" cy="222.22222222222223" fill="hsla(0, 0%, 84%, 1.00)" stroke="none"></circle><circle r="0.8157894736842105" cx="400" cy="222.22222222222223" fill="hsla(0, 0%, 84%, 1.00)" stroke="none"></circle><circle r="0.8157894736842105" cx="450" cy="222.22222222222223" fill="hsla(0, 0%, 84%, 1.00)" stroke="none"></circle><circle r="0.8157894736842105" cx="500" cy="222.22222222222223" fill="hsla(0, 0%, 84%, 1.00)" stroke="none"></circle><circle r="0.8157894736842105" cx="550" cy="222.22222222222223" fill="hsla(0, 0%, 84%, 1.00)" stroke="none"></circle><circle r="0.8157894736842105" cx="600" cy="222.22222222222223" fill="hsla(0, 0%, 84%, 1.00)" stroke="none"></circle><circle r="0.8157894736842105" cx="650" cy="222.22222222222223" fill="hsla(0, 0%, 84%, 1.00)" stroke="none"></circle><circle r="0.8157894736842105" cx="700" cy="222.22222222222223" fill="hsla(0, 0%, 84%, 1.00)" stroke="none"></circle><circle r="0.8157894736842105" cx="750" cy="222.22222222222223" fill="hsla(0, 0%, 84%, 1.00)" stroke="none"></circle><circle r="0.8157894736842105" cx="800" cy="222.22222222222223" fill="hsla(0, 0%, 84%, 1.00)" stroke="none"></circle><circle r="0.8157894736842105" cx="0" cy="266.6666666666667" fill="hsla(0, 0%, 84%, 1.00)" stroke="none"></circle><circle r="0.8157894736842105" cx="50" cy="266.6666666666667" fill="hsla(0, 0%, 84%, 1.00)" stroke="none"></circle><circle r="0.8157894736842105" cx="100" cy="266.6666666666667" fill="hsla(0, 0%, 84%, 1.00)" stroke="none"></circle><circle r="0.8157894736842105" cx="150" cy="266.6666666666667" fill="hsla(0, 0%, 84%, 1.00)" stroke="none"></circle><circle r="0.8157894736842105" cx="200" cy="266.6666666666667" fill="hsla(0, 0%, 84%, 1.00)" stroke="none"></circle><circle r="0.8157894736842105" cx="250" cy="266.6666666666667" fill="hsla(0, 0%, 84%, 1.00)" stroke="none"></circle><circle r="0.8157894736842105" cx="300" cy="266.6666666666667" fill="hsla(0, 0%, 84%, 1.00)" stroke="none"></circle><circle r="0.8157894736842105" cx="350" cy="266.6666666666667" fill="hsla(0, 0%, 84%, 1.00)" stroke="none"></circle><circle r="0.8157894736842105" cx="400" cy="266.6666666666667" fill="hsla(0, 0%, 84%, 1.00)" stroke="none"></circle><circle r="0.8157894736842105" cx="450" cy="266.6666666666667" fill="hsla(0, 0%, 84%, 1.00)" stroke="none"></circle><circle r="0.8157894736842105" cx="500" cy="266.6666666666667" fill="hsla(0, 0%, 84%, 1.00)" stroke="none"></circle><circle r="0.8157894736842105" cx="550" cy="266.6666666666667" fill="hsla(0, 0%, 84%, 1.00)" stroke="none"></circle><circle r="0.8157894736842105" cx="600" cy="266.6666666666667" fill="hsla(0, 0%, 84%, 1.00)" stroke="none"></circle><circle r="0.8157894736842105" cx="650" cy="266.6666666666667" fill="hsla(0, 0%, 84%, 1.00)" stroke="none"></circle><circle r="0.8157894736842105" cx="700" cy="266.6666666666667" fill="hsla(0, 0%, 84%, 1.00)" stroke="none"></circle><circle r="0.8157894736842105" cx="750" cy="266.6666666666667" fill="hsla(0, 0%, 84%, 1.00)" stroke="none"></circle><circle r="0.8157894736842105" cx="800" cy="266.6666666666667" fill="hsla(0, 0%, 84%, 1.00)" stroke="none"></circle><circle r="0.8157894736842105" cx="0" cy="311.11111111111114" fill="hsla(0, 0%, 84%, 1.00)" stroke="none"></circle><circle r="0.8157894736842105" cx="50" cy="311.11111111111114" fill="hsla(0, 0%, 84%, 1.00)" stroke="none"></circle><circle r="0.8157894736842105" cx="100" cy="311.11111111111114" fill="hsla(0, 0%, 84%, 1.00)" stroke="none"></circle><circle r="0.8157894736842105" cx="150" cy="311.11111111111114" fill="hsla(0, 0%, 84%, 1.00)" stroke="none"></circle><circle r="0.8157894736842105" cx="200" cy="311.11111111111114" fill="hsla(0, 0%, 84%, 1.00)" stroke="none"></circle><circle r="0.8157894736842105" cx="250" cy="311.11111111111114" fill="hsla(0, 0%, 84%, 1.00)" stroke="none"></circle><circle r="0.8157894736842105" cx="300" cy="311.11111111111114" fill="hsla(0, 0%, 84%, 1.00)" stroke="none"></circle><circle r="0.8157894736842105" cx="350" cy="311.11111111111114" fill="hsla(0, 0%, 84%, 1.00)" stroke="none"></circle><circle r="0.8157894736842105" cx="400" cy="311.11111111111114" fill="hsla(0, 0%, 84%, 1.00)" stroke="none"></circle><circle r="0.8157894736842105" cx="450" cy="311.11111111111114" fill="hsla(0, 0%, 84%, 1.00)" stroke="none"></circle><circle r="0.8157894736842105" cx="500" cy="311.11111111111114" fill="hsla(0, 0%, 84%, 1.00)" stroke="none"></circle><circle r="0.8157894736842105" cx="550" cy="311.11111111111114" fill="hsla(0, 0%, 84%, 1.00)" stroke="none"></circle><circle r="0.8157894736842105" cx="600" cy="311.11111111111114" fill="hsla(0, 0%, 84%, 1.00)" stroke="none"></circle><circle r="0.8157894736842105" cx="650" cy="311.11111111111114" fill="hsla(0, 0%, 84%, 1.00)" stroke="none"></circle><circle r="0.8157894736842105" cx="700" cy="311.11111111111114" fill="hsla(0, 0%, 84%, 1.00)" stroke="none"></circle><circle r="0.8157894736842105" cx="750" cy="311.11111111111114" fill="hsla(0, 0%, 84%, 1.00)" stroke="none"></circle><circle r="0.8157894736842105" cx="800" cy="311.11111111111114" fill="hsla(0, 0%, 84%, 1.00)" stroke="none"></circle><circle r="0.8157894736842105" cx="0" cy="355.5555555555556" fill="hsla(0, 0%, 84%, 1.00)" stroke="none"></circle><circle r="0.8157894736842105" cx="50" cy="355.5555555555556" fill="hsla(0, 0%, 84%, 1.00)" stroke="none"></circle><circle r="0.8157894736842105" cx="100" cy="355.5555555555556" fill="hsla(0, 0%, 84%, 1.00)" stroke="none"></circle><circle r="0.8157894736842105" cx="150" cy="355.5555555555556" fill="hsla(0, 0%, 84%, 1.00)" stroke="none"></circle><circle r="0.8157894736842105" cx="200" cy="355.5555555555556" fill="hsla(0, 0%, 84%, 1.00)" stroke="none"></circle><circle r="0.8157894736842105" cx="250" cy="355.5555555555556" fill="hsla(0, 0%, 84%, 1.00)" stroke="none"></circle><circle r="0.8157894736842105" cx="300" cy="355.5555555555556" fill="hsla(0, 0%, 84%, 1.00)" stroke="none"></circle><circle r="0.8157894736842105" cx="350" cy="355.5555555555556" fill="hsla(0, 0%, 84%, 1.00)" stroke="none"></circle><circle r="0.8157894736842105" cx="400" cy="355.5555555555556" fill="hsla(0, 0%, 84%, 1.00)" stroke="none"></circle><circle r="0.8157894736842105" cx="450" cy="355.5555555555556" fill="hsla(0, 0%, 84%, 1.00)" stroke="none"></circle><circle r="0.8157894736842105" cx="500" cy="355.5555555555556" fill="hsla(0, 0%, 84%, 1.00)" stroke="none"></circle><circle r="0.8157894736842105" cx="550" cy="355.5555555555556" fill="hsla(0, 0%, 84%, 1.00)" stroke="none"></circle><circle r="0.8157894736842105" cx="600" cy="355.5555555555556" fill="hsla(0, 0%, 84%, 1.00)" stroke="none"></circle><circle r="0.8157894736842105" cx="650" cy="355.5555555555556" fill="hsla(0, 0%, 84%, 1.00)" stroke="none"></circle><circle r="0.8157894736842105" cx="700" cy="355.5555555555556" fill="hsla(0, 0%, 84%, 1.00)" stroke="none"></circle><circle r="0.8157894736842105" cx="750" cy="355.5555555555556" fill="hsla(0, 0%, 84%, 1.00)" stroke="none"></circle><circle r="0.8157894736842105" cx="800" cy="355.5555555555556" fill="hsla(0, 0%, 84%, 1.00)" stroke="none"></circle><circle r="0.8157894736842105" cx="0" cy="400.00000000000006" fill="hsla(0, 0%, 84%, 1.00)" stroke="none"></circle><circle r="0.8157894736842105" cx="50" cy="400.00000000000006" fill="hsla(0, 0%, 84%, 1.00)" stroke="none"></circle><circle r="0.8157894736842105" cx="100" cy="400.00000000000006" fill="hsla(0, 0%, 84%, 1.00)" stroke="none"></circle><circle r="0.8157894736842105" cx="150" cy="400.00000000000006" fill="hsla(0, 0%, 84%, 1.00)" stroke="none"></circle><circle r="0.8157894736842105" cx="200" cy="400.00000000000006" fill="hsla(0, 0%, 84%, 1.00)" stroke="none"></circle><circle r="0.8157894736842105" cx="250" cy="400.00000000000006" fill="hsla(0, 0%, 84%, 1.00)" stroke="none"></circle><circle r="0.8157894736842105" cx="300" cy="400.00000000000006" fill="hsla(0, 0%, 84%, 1.00)" stroke="none"></circle><circle r="0.8157894736842105" cx="350" cy="400.00000000000006" fill="hsla(0, 0%, 84%, 1.00)" stroke="none"></circle><circle r="0.8157894736842105" cx="400" cy="400.00000000000006" fill="hsla(0, 0%, 84%, 1.00)" stroke="none"></circle><circle r="0.8157894736842105" cx="450" cy="400.00000000000006" fill="hsla(0, 0%, 84%, 1.00)" stroke="none"></circle><circle r="0.8157894736842105" cx="500" cy="400.00000000000006" fill="hsla(0, 0%, 84%, 1.00)" stroke="none"></circle><circle r="0.8157894736842105" cx="550" cy="400.00000000000006" fill="hsla(0, 0%, 84%, 1.00)" stroke="none"></circle><circle r="0.8157894736842105" cx="600" cy="400.00000000000006" fill="hsla(0, 0%, 84%, 1.00)" stroke="none"></circle><circle r="0.8157894736842105" cx="650" cy="400.00000000000006" fill="hsla(0, 0%, 84%, 1.00)" stroke="none"></circle><circle r="0.8157894736842105" cx="700" cy="400.00000000000006" fill="hsla(0, 0%, 84%, 1.00)" stroke="none"></circle><circle r="0.8157894736842105" cx="750" cy="400.00000000000006" fill="hsla(0, 0%, 84%, 1.00)" stroke="none"></circle><circle r="0.8157894736842105" cx="800" cy="400.00000000000006" fill="hsla(0, 0%, 84%, 1.00)" stroke="none"></circle><circle r="0.8157894736842105" cx="0" cy="444.4444444444445" fill="hsla(0, 0%, 84%, 1.00)" stroke="none"></circle><circle r="0.8157894736842105" cx="50" cy="444.4444444444445" fill="hsla(0, 0%, 84%, 1.00)" stroke="none"></circle><circle r="0.8157894736842105" cx="100" cy="444.4444444444445" fill="hsla(0, 0%, 84%, 1.00)" stroke="none"></circle><circle r="0.8157894736842105" cx="150" cy="444.4444444444445" fill="hsla(0, 0%, 84%, 1.00)" stroke="none"></circle><circle r="0.8157894736842105" cx="200" cy="444.4444444444445" fill="hsla(0, 0%, 84%, 1.00)" stroke="none"></circle><circle r="0.8157894736842105" cx="250" cy="444.4444444444445" fill="hsla(0, 0%, 84%, 1.00)" stroke="none"></circle><circle r="0.8157894736842105" cx="300" cy="444.4444444444445" fill="hsla(0, 0%, 84%, 1.00)" stroke="none"></circle><circle r="0.8157894736842105" cx="350" cy="444.4444444444445" fill="hsla(0, 0%, 84%, 1.00)" stroke="none"></circle><circle r="0.8157894736842105" cx="400" cy="444.4444444444445" fill="hsla(0, 0%, 84%, 1.00)" stroke="none"></circle><circle r="0.8157894736842105" cx="450" cy="444.4444444444445" fill="hsla(0, 0%, 84%, 1.00)" stroke="none"></circle><circle r="0.8157894736842105" cx="500" cy="444.4444444444445" fill="hsla(0, 0%, 84%, 1.00)" stroke="none"></circle><circle r="0.8157894736842105" cx="550" cy="444.4444444444445" fill="hsla(0, 0%, 84%, 1.00)" stroke="none"></circle><circle r="0.8157894736842105" cx="600" cy="444.4444444444445" fill="hsla(0, 0%, 84%, 1.00)" stroke="none"></circle><circle r="0.8157894736842105" cx="650" cy="444.4444444444445" fill="hsla(0, 0%, 84%, 1.00)" stroke="none"></circle><circle r="0.8157894736842105" cx="700" cy="444.4444444444445" fill="hsla(0, 0%, 84%, 1.00)" stroke="none"></circle><circle r="0.8157894736842105" cx="750" cy="444.4444444444445" fill="hsla(0, 0%, 84%, 1.00)" stroke="none"></circle><circle r="0.8157894736842105" cx="800" cy="444.4444444444445" fill="hsla(0, 0%, 84%, 1.00)" stroke="none"></circle><circle r="0.8157894736842105" cx="0" cy="488.88888888888897" fill="hsla(0, 0%, 84%, 1.00)" stroke="none"></circle><circle r="0.8157894736842105" cx="50" cy="488.88888888888897" fill="hsla(0, 0%, 84%, 1.00)" stroke="none"></circle><circle r="0.8157894736842105" cx="100" cy="488.88888888888897" fill="hsla(0, 0%, 84%, 1.00)" stroke="none"></circle><circle r="0.8157894736842105" cx="150" cy="488.88888888888897" fill="hsla(0, 0%, 84%, 1.00)" stroke="none"></circle><circle r="0.8157894736842105" cx="200" cy="488.88888888888897" fill="hsla(0, 0%, 84%, 1.00)" stroke="none"></circle><circle r="0.8157894736842105" cx="250" cy="488.88888888888897" fill="hsla(0, 0%, 84%, 1.00)" stroke="none"></circle><circle r="0.8157894736842105" cx="300" cy="488.88888888888897" fill="hsla(0, 0%, 84%, 1.00)" stroke="none"></circle><circle r="0.8157894736842105" cx="350" cy="488.88888888888897" fill="hsla(0, 0%, 84%, 1.00)" stroke="none"></circle><circle r="0.8157894736842105" cx="400" cy="488.88888888888897" fill="hsla(0, 0%, 84%, 1.00)" stroke="none"></circle><circle r="0.8157894736842105" cx="450" cy="488.88888888888897" fill="hsla(0, 0%, 84%, 1.00)" stroke="none"></circle><circle r="0.8157894736842105" cx="500" cy="488.88888888888897" fill="hsla(0, 0%, 84%, 1.00)" stroke="none"></circle><circle r="0.8157894736842105" cx="550" cy="488.88888888888897" fill="hsla(0, 0%, 84%, 1.00)" stroke="none"></circle><circle r="0.8157894736842105" cx="600" cy="488.88888888888897" fill="hsla(0, 0%, 84%, 1.00)" stroke="none"></circle><circle r="0.8157894736842105" cx="650" cy="488.88888888888897" fill="hsla(0, 0%, 84%, 1.00)" stroke="none"></circle><circle r="0.8157894736842105" cx="700" cy="488.88888888888897" fill="hsla(0, 0%, 84%, 1.00)" stroke="none"></circle><circle r="0.8157894736842105" cx="750" cy="488.88888888888897" fill="hsla(0, 0%, 84%, 1.00)" stroke="none"></circle><circle r="0.8157894736842105" cx="800" cy="488.88888888888897" fill="hsla(0, 0%, 84%, 1.00)" stroke="none"></circle><circle r="0.8157894736842105" cx="0" cy="533.3333333333334" fill="hsla(0, 0%, 84%, 1.00)" stroke="none"></circle><circle r="0.8157894736842105" cx="50" cy="533.3333333333334" fill="hsla(0, 0%, 84%, 1.00)" stroke="none"></circle><circle r="0.8157894736842105" cx="100" cy="533.3333333333334" fill="hsla(0, 0%, 84%, 1.00)" stroke="none"></circle><circle r="0.8157894736842105" cx="150" cy="533.3333333333334" fill="hsla(0, 0%, 84%, 1.00)" stroke="none"></circle><circle r="0.8157894736842105" cx="200" cy="533.3333333333334" fill="hsla(0, 0%, 84%, 1.00)" stroke="none"></circle><circle r="0.8157894736842105" cx="250" cy="533.3333333333334" fill="hsla(0, 0%, 84%, 1.00)" stroke="none"></circle><circle r="0.8157894736842105" cx="300" cy="533.3333333333334" fill="hsla(0, 0%, 84%, 1.00)" stroke="none"></circle><circle r="0.8157894736842105" cx="350" cy="533.3333333333334" fill="hsla(0, 0%, 84%, 1.00)" stroke="none"></circle><circle r="0.8157894736842105" cx="400" cy="533.3333333333334" fill="hsla(0, 0%, 84%, 1.00)" stroke="none"></circle><circle r="0.8157894736842105" cx="450" cy="533.3333333333334" fill="hsla(0, 0%, 84%, 1.00)" stroke="none"></circle><circle r="0.8157894736842105" cx="500" cy="533.3333333333334" fill="hsla(0, 0%, 84%, 1.00)" stroke="none"></circle><circle r="0.8157894736842105" cx="550" cy="533.3333333333334" fill="hsla(0, 0%, 84%, 1.00)" stroke="none"></circle><circle r="0.8157894736842105" cx="600" cy="533.3333333333334" fill="hsla(0, 0%, 84%, 1.00)" stroke="none"></circle><circle r="0.8157894736842105" cx="650" cy="533.3333333333334" fill="hsla(0, 0%, 84%, 1.00)" stroke="none"></circle><circle r="0.8157894736842105" cx="700" cy="533.3333333333334" fill="hsla(0, 0%, 84%, 1.00)" stroke="none"></circle><circle r="0.8157894736842105" cx="750" cy="533.3333333333334" fill="hsla(0, 0%, 84%, 1.00)" stroke="none"></circle><circle r="0.8157894736842105" cx="800" cy="533.3333333333334" fill="hsla(0, 0%, 84%, 1.00)" stroke="none"></circle><circle r="0.8157894736842105" cx="0" cy="577.7777777777778" fill="hsla(0, 0%, 84%, 1.00)" stroke="none"></circle><circle r="0.8157894736842105" cx="50" cy="577.7777777777778" fill="hsla(0, 0%, 84%, 1.00)" stroke="none"></circle><circle r="0.8157894736842105" cx="100" cy="577.7777777777778" fill="hsla(0, 0%, 84%, 1.00)" stroke="none"></circle><circle r="0.8157894736842105" cx="150" cy="577.7777777777778" fill="hsla(0, 0%, 84%, 1.00)" stroke="none"></circle><circle r="0.8157894736842105" cx="200" cy="577.7777777777778" fill="hsla(0, 0%, 84%, 1.00)" stroke="none"></circle><circle r="0.8157894736842105" cx="250" cy="577.7777777777778" fill="hsla(0, 0%, 84%, 1.00)" stroke="none"></circle><circle r="0.8157894736842105" cx="300" cy="577.7777777777778" fill="hsla(0, 0%, 84%, 1.00)" stroke="none"></circle><circle r="0.8157894736842105" cx="350" cy="577.7777777777778" fill="hsla(0, 0%, 84%, 1.00)" stroke="none"></circle><circle r="0.8157894736842105" cx="400" cy="577.7777777777778" fill="hsla(0, 0%, 84%, 1.00)" stroke="none"></circle><circle r="0.8157894736842105" cx="450" cy="577.7777777777778" fill="hsla(0, 0%, 84%, 1.00)" stroke="none"></circle><circle r="0.8157894736842105" cx="500" cy="577.7777777777778" fill="hsla(0, 0%, 84%, 1.00)" stroke="none"></circle><circle r="0.8157894736842105" cx="550" cy="577.7777777777778" fill="hsla(0, 0%, 84%, 1.00)" stroke="none"></circle><circle r="0.8157894736842105" cx="600" cy="577.7777777777778" fill="hsla(0, 0%, 84%, 1.00)" stroke="none"></circle><circle r="0.8157894736842105" cx="650" cy="577.7777777777778" fill="hsla(0, 0%, 84%, 1.00)" stroke="none"></circle><circle r="0.8157894736842105" cx="700" cy="577.7777777777778" fill="hsla(0, 0%, 84%, 1.00)" stroke="none"></circle><circle r="0.8157894736842105" cx="750" cy="577.7777777777778" fill="hsla(0, 0%, 84%, 1.00)" stroke="none"></circle><circle r="0.8157894736842105" cx="800" cy="577.7777777777778" fill="hsla(0, 0%, 84%, 1.00)" stroke="none"></circle><circle r="0.8157894736842105" cx="0" cy="622.2222222222223" fill="hsla(0, 0%, 84%, 1.00)" stroke="none"></circle><circle r="0.8157894736842105" cx="50" cy="622.2222222222223" fill="hsla(0, 0%, 84%, 1.00)" stroke="none"></circle><circle r="0.8157894736842105" cx="100" cy="622.2222222222223" fill="hsla(0, 0%, 84%, 1.00)" stroke="none"></circle><circle r="0.8157894736842105" cx="150" cy="622.2222222222223" fill="hsla(0, 0%, 84%, 1.00)" stroke="none"></circle><circle r="0.8157894736842105" cx="200" cy="622.2222222222223" fill="hsla(0, 0%, 84%, 1.00)" stroke="none"></circle><circle r="0.8157894736842105" cx="250" cy="622.2222222222223" fill="hsla(0, 0%, 84%, 1.00)" stroke="none"></circle><circle r="0.8157894736842105" cx="300" cy="622.2222222222223" fill="hsla(0, 0%, 84%, 1.00)" stroke="none"></circle><circle r="0.8157894736842105" cx="350" cy="622.2222222222223" fill="hsla(0, 0%, 84%, 1.00)" stroke="none"></circle><circle r="0.8157894736842105" cx="400" cy="622.2222222222223" fill="hsla(0, 0%, 84%, 1.00)" stroke="none"></circle><circle r="0.8157894736842105" cx="450" cy="622.2222222222223" fill="hsla(0, 0%, 84%, 1.00)" stroke="none"></circle><circle r="0.8157894736842105" cx="500" cy="622.2222222222223" fill="hsla(0, 0%, 84%, 1.00)" stroke="none"></circle><circle r="0.8157894736842105" cx="550" cy="622.2222222222223" fill="hsla(0, 0%, 84%, 1.00)" stroke="none"></circle><circle r="0.8157894736842105" cx="600" cy="622.2222222222223" fill="hsla(0, 0%, 84%, 1.00)" stroke="none"></circle><circle r="0.8157894736842105" cx="650" cy="622.2222222222223" fill="hsla(0, 0%, 84%, 1.00)" stroke="none"></circle><circle r="0.8157894736842105" cx="700" cy="622.2222222222223" fill="hsla(0, 0%, 84%, 1.00)" stroke="none"></circle><circle r="0.8157894736842105" cx="750" cy="622.2222222222223" fill="hsla(0, 0%, 84%, 1.00)" stroke="none"></circle><circle r="0.8157894736842105" cx="800" cy="622.2222222222223" fill="hsla(0, 0%, 84%, 1.00)" stroke="none"></circle><circle r="0.8157894736842105" cx="0" cy="666.6666666666667" fill="hsla(0, 0%, 84%, 1.00)" stroke="none"></circle><circle r="0.8157894736842105" cx="50" cy="666.6666666666667" fill="hsla(0, 0%, 84%, 1.00)" stroke="none"></circle><circle r="0.8157894736842105" cx="100" cy="666.6666666666667" fill="hsla(0, 0%, 84%, 1.00)" stroke="none"></circle><circle r="0.8157894736842105" cx="150" cy="666.6666666666667" fill="hsla(0, 0%, 84%, 1.00)" stroke="none"></circle><circle r="0.8157894736842105" cx="200" cy="666.6666666666667" fill="hsla(0, 0%, 84%, 1.00)" stroke="none"></circle><circle r="0.8157894736842105" cx="250" cy="666.6666666666667" fill="hsla(0, 0%, 84%, 1.00)" stroke="none"></circle><circle r="0.8157894736842105" cx="300" cy="666.6666666666667" fill="hsla(0, 0%, 84%, 1.00)" stroke="none"></circle><circle r="0.8157894736842105" cx="350" cy="666.6666666666667" fill="hsla(0, 0%, 84%, 1.00)" stroke="none"></circle><circle r="0.8157894736842105" cx="400" cy="666.6666666666667" fill="hsla(0, 0%, 84%, 1.00)" stroke="none"></circle><circle r="0.8157894736842105" cx="450" cy="666.6666666666667" fill="hsla(0, 0%, 84%, 1.00)" stroke="none"></circle><circle r="0.8157894736842105" cx="500" cy="666.6666666666667" fill="hsla(0, 0%, 84%, 1.00)" stroke="none"></circle><circle r="0.8157894736842105" cx="550" cy="666.6666666666667" fill="hsla(0, 0%, 84%, 1.00)" stroke="none"></circle><circle r="0.8157894736842105" cx="600" cy="666.6666666666667" fill="hsla(0, 0%, 84%, 1.00)" stroke="none"></circle><circle r="0.8157894736842105" cx="650" cy="666.6666666666667" fill="hsla(0, 0%, 84%, 1.00)" stroke="none"></circle><circle r="0.8157894736842105" cx="700" cy="666.6666666666667" fill="hsla(0, 0%, 84%, 1.00)" stroke="none"></circle><circle r="0.8157894736842105" cx="750" cy="666.6666666666667" fill="hsla(0, 0%, 84%, 1.00)" stroke="none"></circle><circle r="0.8157894736842105" cx="800" cy="666.6666666666667" fill="hsla(0, 0%, 84%, 1.00)" stroke="none"></circle><circle r="0.8157894736842105" cx="0" cy="711.1111111111112" fill="hsla(0, 0%, 84%, 1.00)" stroke="none"></circle><circle r="0.8157894736842105" cx="50" cy="711.1111111111112" fill="hsla(0, 0%, 84%, 1.00)" stroke="none"></circle><circle r="0.8157894736842105" cx="100" cy="711.1111111111112" fill="hsla(0, 0%, 84%, 1.00)" stroke="none"></circle><circle r="0.8157894736842105" cx="150" cy="711.1111111111112" fill="hsla(0, 0%, 84%, 1.00)" stroke="none"></circle><circle r="0.8157894736842105" cx="200" cy="711.1111111111112" fill="hsla(0, 0%, 84%, 1.00)" stroke="none"></circle><circle r="0.8157894736842105" cx="250" cy="711.1111111111112" fill="hsla(0, 0%, 84%, 1.00)" stroke="none"></circle><circle r="0.8157894736842105" cx="300" cy="711.1111111111112" fill="hsla(0, 0%, 84%, 1.00)" stroke="none"></circle><circle r="0.8157894736842105" cx="350" cy="711.1111111111112" fill="hsla(0, 0%, 84%, 1.00)" stroke="none"></circle><circle r="0.8157894736842105" cx="400" cy="711.1111111111112" fill="hsla(0, 0%, 84%, 1.00)" stroke="none"></circle><circle r="0.8157894736842105" cx="450" cy="711.1111111111112" fill="hsla(0, 0%, 84%, 1.00)" stroke="none"></circle><circle r="0.8157894736842105" cx="500" cy="711.1111111111112" fill="hsla(0, 0%, 84%, 1.00)" stroke="none"></circle><circle r="0.8157894736842105" cx="550" cy="711.1111111111112" fill="hsla(0, 0%, 84%, 1.00)" stroke="none"></circle><circle r="0.8157894736842105" cx="600" cy="711.1111111111112" fill="hsla(0, 0%, 84%, 1.00)" stroke="none"></circle><circle r="0.8157894736842105" cx="650" cy="711.1111111111112" fill="hsla(0, 0%, 84%, 1.00)" stroke="none"></circle><circle r="0.8157894736842105" cx="700" cy="711.1111111111112" fill="hsla(0, 0%, 84%, 1.00)" stroke="none"></circle><circle r="0.8157894736842105" cx="750" cy="711.1111111111112" fill="hsla(0, 0%, 84%, 1.00)" stroke="none"></circle><circle r="0.8157894736842105" cx="800" cy="711.1111111111112" fill="hsla(0, 0%, 84%, 1.00)" stroke="none"></circle><circle r="0.8157894736842105" cx="0" cy="755.5555555555557" fill="hsla(0, 0%, 84%, 1.00)" stroke="none"></circle><circle r="0.8157894736842105" cx="50" cy="755.5555555555557" fill="hsla(0, 0%, 84%, 1.00)" stroke="none"></circle><circle r="0.8157894736842105" cx="100" cy="755.5555555555557" fill="hsla(0, 0%, 84%, 1.00)" stroke="none"></circle><circle r="0.8157894736842105" cx="150" cy="755.5555555555557" fill="hsla(0, 0%, 84%, 1.00)" stroke="none"></circle><circle r="0.8157894736842105" cx="200" cy="755.5555555555557" fill="hsla(0, 0%, 84%, 1.00)" stroke="none"></circle><circle r="0.8157894736842105" cx="250" cy="755.5555555555557" fill="hsla(0, 0%, 84%, 1.00)" stroke="none"></circle><circle r="0.8157894736842105" cx="300" cy="755.5555555555557" fill="hsla(0, 0%, 84%, 1.00)" stroke="none"></circle><circle r="0.8157894736842105" cx="350" cy="755.5555555555557" fill="hsla(0, 0%, 84%, 1.00)" stroke="none"></circle><circle r="0.8157894736842105" cx="400" cy="755.5555555555557" fill="hsla(0, 0%, 84%, 1.00)" stroke="none"></circle><circle r="0.8157894736842105" cx="450" cy="755.5555555555557" fill="hsla(0, 0%, 84%, 1.00)" stroke="none"></circle><circle r="0.8157894736842105" cx="500" cy="755.5555555555557" fill="hsla(0, 0%, 84%, 1.00)" stroke="none"></circle><circle r="0.8157894736842105" cx="550" cy="755.5555555555557" fill="hsla(0, 0%, 84%, 1.00)" stroke="none"></circle><circle r="0.8157894736842105" cx="600" cy="755.5555555555557" fill="hsla(0, 0%, 84%, 1.00)" stroke="none"></circle><circle r="0.8157894736842105" cx="650" cy="755.5555555555557" fill="hsla(0, 0%, 84%, 1.00)" stroke="none"></circle><circle r="0.8157894736842105" cx="700" cy="755.5555555555557" fill="hsla(0, 0%, 84%, 1.00)" stroke="none"></circle><circle r="0.8157894736842105" cx="750" cy="755.5555555555557" fill="hsla(0, 0%, 84%, 1.00)" stroke="none"></circle><circle r="0.8157894736842105" cx="800" cy="755.5555555555557" fill="hsla(0, 0%, 84%, 1.00)" stroke="none"></circle><circle r="0.8157894736842105" cx="0" cy="800.0000000000001" fill="hsla(0, 0%, 84%, 1.00)" stroke="none"></circle><circle r="0.8157894736842105" cx="50" cy="800.0000000000001" fill="hsla(0, 0%, 84%, 1.00)" stroke="none"></circle><circle r="0.8157894736842105" cx="100" cy="800.0000000000001" fill="hsla(0, 0%, 84%, 1.00)" stroke="none"></circle><circle r="0.8157894736842105" cx="150" cy="800.0000000000001" fill="hsla(0, 0%, 84%, 1.00)" stroke="none"></circle><circle r="0.8157894736842105" cx="200" cy="800.0000000000001" fill="hsla(0, 0%, 84%, 1.00)" stroke="none"></circle><circle r="0.8157894736842105" cx="250" cy="800.0000000000001" fill="hsla(0, 0%, 84%, 1.00)" stroke="none"></circle><circle r="0.8157894736842105" cx="300" cy="800.0000000000001" fill="hsla(0, 0%, 84%, 1.00)" stroke="none"></circle><circle r="0.8157894736842105" cx="350" cy="800.0000000000001" fill="hsla(0, 0%, 84%, 1.00)" stroke="none"></circle><circle r="0.8157894736842105" cx="400" cy="800.0000000000001" fill="hsla(0, 0%, 84%, 1.00)" stroke="none"></circle><circle r="0.8157894736842105" cx="450" cy="800.0000000000001" fill="hsla(0, 0%, 84%, 1.00)" stroke="none"></circle><circle r="0.8157894736842105" cx="500" cy="800.0000000000001" fill="hsla(0, 0%, 84%, 1.00)" stroke="none"></circle><circle r="0.8157894736842105" cx="550" cy="800.0000000000001" fill="hsla(0, 0%, 84%, 1.00)" stroke="none"></circle><circle r="0.8157894736842105" cx="600" cy="800.0000000000001" fill="hsla(0, 0%, 84%, 1.00)" stroke="none"></circle><circle r="0.8157894736842105" cx="650" cy="800.0000000000001" fill="hsla(0, 0%, 84%, 1.00)" stroke="none"></circle><circle r="0.8157894736842105" cx="700" cy="800.0000000000001" fill="hsla(0, 0%, 84%, 1.00)" stroke="none"></circle><circle r="0.8157894736842105" cx="750" cy="800.0000000000001" fill="hsla(0, 0%, 84%, 1.00)" stroke="none"></circle><circle r="0.8157894736842105" cx="800" cy="800.0000000000001" fill="hsla(0, 0%, 84%, 1.00)" stroke="none"></circle></g></svg>